<mxfile host="app.diagrams.net" modified="2023-06-24T04:42:47.975Z" agent="Mozilla/5.0 (Windows NT 10.0; Win64; x64) AppleWebKit/537.36 (KHTML, like Gecko) Chrome/114.0.0.0 Safari/537.36" etag="4_724Us8fYNJfOYVTvz5" version="21.5.0" type="device">
  <diagram name="Page-1" id="V096tO5lMfOXpnxuI0oa">
    <mxGraphModel dx="1050" dy="587" grid="1" gridSize="10" guides="1" tooltips="1" connect="1" arrows="1" fold="1" page="1" pageScale="1" pageWidth="850" pageHeight="1100" math="0" shadow="0">
      <root>
        <mxCell id="0" />
        <mxCell id="1" parent="0" />
        <mxCell id="Mwg2DbVXl2u32MawQ9Do-1" value="" style="rounded=0;whiteSpace=wrap;html=1;" vertex="1" parent="1">
          <mxGeometry x="240" y="60" width="280" height="60" as="geometry" />
        </mxCell>
        <mxCell id="Mwg2DbVXl2u32MawQ9Do-2" value="Switch based counting and serial communication System" style="text;html=1;strokeColor=none;fillColor=none;align=center;verticalAlign=middle;whiteSpace=wrap;rounded=0;fontSize=14;" vertex="1" parent="1">
          <mxGeometry x="250" y="75" width="240" height="30" as="geometry" />
        </mxCell>
        <mxCell id="Mwg2DbVXl2u32MawQ9Do-4" value="" style="rounded=0;whiteSpace=wrap;html=1;" vertex="1" parent="1">
          <mxGeometry x="240" y="410" width="280" height="60" as="geometry" />
        </mxCell>
        <mxCell id="Mwg2DbVXl2u32MawQ9Do-5" value="&lt;font style=&quot;font-size: 14px;&quot;&gt;AT89C51ED2&lt;br style=&quot;&quot;&gt;Microcontroller&amp;nbsp; &amp;nbsp; &amp;nbsp; &amp;nbsp; &amp;nbsp;&amp;nbsp;&lt;/font&gt;" style="text;html=1;strokeColor=none;fillColor=none;align=center;verticalAlign=middle;whiteSpace=wrap;rounded=0;" vertex="1" parent="1">
          <mxGeometry x="300" y="425" width="150" height="30" as="geometry" />
        </mxCell>
        <mxCell id="Mwg2DbVXl2u32MawQ9Do-8" value="" style="rounded=0;whiteSpace=wrap;html=1;" vertex="1" parent="1">
          <mxGeometry x="240" y="900" width="280" height="60" as="geometry" />
        </mxCell>
        <mxCell id="Mwg2DbVXl2u32MawQ9Do-9" value="&lt;font style=&quot;font-size: 14px;&quot;&gt;Output Devices/ LEDs&lt;/font&gt;" style="text;html=1;strokeColor=none;fillColor=none;align=center;verticalAlign=middle;whiteSpace=wrap;rounded=0;" vertex="1" parent="1">
          <mxGeometry x="295" y="915" width="160" height="30" as="geometry" />
        </mxCell>
        <mxCell id="Mwg2DbVXl2u32MawQ9Do-10" value="" style="rounded=0;whiteSpace=wrap;html=1;" vertex="1" parent="1">
          <mxGeometry x="425" y="180" width="125" height="40" as="geometry" />
        </mxCell>
        <mxCell id="Mwg2DbVXl2u32MawQ9Do-11" value="&lt;font style=&quot;font-size: 14px;&quot;&gt;Switch&lt;/font&gt;" style="text;html=1;strokeColor=none;fillColor=none;align=center;verticalAlign=middle;whiteSpace=wrap;rounded=0;" vertex="1" parent="1">
          <mxGeometry x="457.5" y="185" width="60" height="30" as="geometry" />
        </mxCell>
        <mxCell id="Mwg2DbVXl2u32MawQ9Do-12" value="" style="rounded=0;whiteSpace=wrap;html=1;" vertex="1" parent="1">
          <mxGeometry x="425" y="290" width="125" height="40" as="geometry" />
        </mxCell>
        <mxCell id="Mwg2DbVXl2u32MawQ9Do-13" value="&lt;font style=&quot;font-size: 14px;&quot;&gt;Counting Operation&lt;/font&gt;" style="text;html=1;strokeColor=none;fillColor=none;align=center;verticalAlign=middle;whiteSpace=wrap;rounded=0;" vertex="1" parent="1">
          <mxGeometry x="460" y="295" width="60" height="30" as="geometry" />
        </mxCell>
        <mxCell id="Mwg2DbVXl2u32MawQ9Do-14" value="" style="rounded=0;whiteSpace=wrap;html=1;" vertex="1" parent="1">
          <mxGeometry x="425" y="650" width="125" height="40" as="geometry" />
        </mxCell>
        <mxCell id="Mwg2DbVXl2u32MawQ9Do-15" value="" style="rounded=0;whiteSpace=wrap;html=1;" vertex="1" parent="1">
          <mxGeometry x="425" y="540" width="125" height="40" as="geometry" />
        </mxCell>
        <mxCell id="Mwg2DbVXl2u32MawQ9Do-16" value="&lt;font style=&quot;font-size: 14px;&quot;&gt;Timer 1&lt;/font&gt;" style="text;html=1;strokeColor=none;fillColor=none;align=center;verticalAlign=middle;whiteSpace=wrap;rounded=0;" vertex="1" parent="1">
          <mxGeometry x="450" y="545" width="60" height="30" as="geometry" />
        </mxCell>
        <mxCell id="Mwg2DbVXl2u32MawQ9Do-17" value="&lt;font style=&quot;font-size: 14px;&quot;&gt;UART Module&lt;/font&gt;" style="text;html=1;strokeColor=none;fillColor=none;align=center;verticalAlign=middle;whiteSpace=wrap;rounded=0;" vertex="1" parent="1">
          <mxGeometry x="460" y="655" width="60" height="30" as="geometry" />
        </mxCell>
        <mxCell id="Mwg2DbVXl2u32MawQ9Do-18" value="" style="endArrow=none;dashed=1;html=1;rounded=0;entryX=0.5;entryY=1;entryDx=0;entryDy=0;exitX=0.5;exitY=0;exitDx=0;exitDy=0;" edge="1" parent="1" source="Mwg2DbVXl2u32MawQ9Do-12" target="Mwg2DbVXl2u32MawQ9Do-10">
          <mxGeometry width="50" height="50" relative="1" as="geometry">
            <mxPoint x="490" y="280" as="sourcePoint" />
            <mxPoint x="450" y="120" as="targetPoint" />
          </mxGeometry>
        </mxCell>
        <mxCell id="Mwg2DbVXl2u32MawQ9Do-19" value="&lt;font style=&quot;font-size: 14px;&quot;&gt;P1.0&lt;/font&gt;" style="text;html=1;strokeColor=none;fillColor=none;align=center;verticalAlign=middle;whiteSpace=wrap;rounded=0;" vertex="1" parent="1">
          <mxGeometry x="490" y="240" width="60" height="30" as="geometry" />
        </mxCell>
        <mxCell id="Mwg2DbVXl2u32MawQ9Do-21" value="" style="endArrow=none;dashed=1;html=1;rounded=0;exitX=0.5;exitY=1;exitDx=0;exitDy=0;" edge="1" parent="1" source="Mwg2DbVXl2u32MawQ9Do-12">
          <mxGeometry width="50" height="50" relative="1" as="geometry">
            <mxPoint x="400" y="330" as="sourcePoint" />
            <mxPoint x="488" y="350" as="targetPoint" />
          </mxGeometry>
        </mxCell>
        <mxCell id="Mwg2DbVXl2u32MawQ9Do-22" value="&lt;font style=&quot;font-size: 14px;&quot;&gt;P2.0 to P2.7&lt;/font&gt;" style="text;html=1;strokeColor=none;fillColor=none;align=center;verticalAlign=middle;whiteSpace=wrap;rounded=0;" vertex="1" parent="1">
          <mxGeometry x="410" y="350" width="170" height="30" as="geometry" />
        </mxCell>
        <mxCell id="Mwg2DbVXl2u32MawQ9Do-23" value="" style="endArrow=none;dashed=1;html=1;rounded=0;exitX=0.459;exitY=1.103;exitDx=0;exitDy=0;exitPerimeter=0;dashPattern=8 8;" edge="1" parent="1" source="Mwg2DbVXl2u32MawQ9Do-1">
          <mxGeometry width="50" height="50" relative="1" as="geometry">
            <mxPoint x="400" y="320" as="sourcePoint" />
            <mxPoint x="369" y="410" as="targetPoint" />
          </mxGeometry>
        </mxCell>
        <mxCell id="Mwg2DbVXl2u32MawQ9Do-24" value="" style="endArrow=none;dashed=1;html=1;rounded=0;exitX=0.461;exitY=1.043;exitDx=0;exitDy=0;exitPerimeter=0;entryX=0.461;entryY=0.05;entryDx=0;entryDy=0;entryPerimeter=0;dashPattern=8 8;" edge="1" parent="1" source="Mwg2DbVXl2u32MawQ9Do-4" target="Mwg2DbVXl2u32MawQ9Do-8">
          <mxGeometry width="50" height="50" relative="1" as="geometry">
            <mxPoint x="400" y="700" as="sourcePoint" />
            <mxPoint x="370" y="890" as="targetPoint" />
          </mxGeometry>
        </mxCell>
        <mxCell id="Mwg2DbVXl2u32MawQ9Do-25" value="" style="endArrow=none;dashed=1;html=1;rounded=0;entryX=0.43;entryY=1.015;entryDx=0;entryDy=0;entryPerimeter=0;exitX=0.437;exitY=-0.055;exitDx=0;exitDy=0;exitPerimeter=0;" edge="1" parent="1" source="Mwg2DbVXl2u32MawQ9Do-14" target="Mwg2DbVXl2u32MawQ9Do-15">
          <mxGeometry width="50" height="50" relative="1" as="geometry">
            <mxPoint x="400" y="700" as="sourcePoint" />
            <mxPoint x="450" y="650" as="targetPoint" />
          </mxGeometry>
        </mxCell>
        <mxCell id="Mwg2DbVXl2u32MawQ9Do-26" value="&lt;font style=&quot;font-size: 14px;&quot;&gt;TH1&lt;/font&gt;" style="text;html=1;strokeColor=none;fillColor=none;align=center;verticalAlign=middle;whiteSpace=wrap;rounded=0;" vertex="1" parent="1">
          <mxGeometry x="480" y="600" width="60" height="30" as="geometry" />
        </mxCell>
        <mxCell id="Mwg2DbVXl2u32MawQ9Do-27" value="" style="endArrow=none;dashed=1;html=1;rounded=0;exitX=0.437;exitY=1.005;exitDx=0;exitDy=0;exitPerimeter=0;" edge="1" parent="1" source="Mwg2DbVXl2u32MawQ9Do-14">
          <mxGeometry width="50" height="50" relative="1" as="geometry">
            <mxPoint x="400" y="690" as="sourcePoint" />
            <mxPoint x="480" y="830" as="targetPoint" />
          </mxGeometry>
        </mxCell>
        <mxCell id="Mwg2DbVXl2u32MawQ9Do-29" value="" style="endArrow=classic;html=1;rounded=0;dashed=1;dashPattern=8 8;" edge="1" parent="1" target="Mwg2DbVXl2u32MawQ9Do-30">
          <mxGeometry width="50" height="50" relative="1" as="geometry">
            <mxPoint x="480" y="740" as="sourcePoint" />
            <mxPoint x="600" y="740" as="targetPoint" />
          </mxGeometry>
        </mxCell>
        <mxCell id="Mwg2DbVXl2u32MawQ9Do-30" value="&lt;font style=&quot;font-size: 14px;&quot;&gt;TXD (Serial data)&lt;/font&gt;" style="text;html=1;strokeColor=none;fillColor=none;align=center;verticalAlign=middle;whiteSpace=wrap;rounded=0;" vertex="1" parent="1">
          <mxGeometry x="570" y="725" width="140" height="30" as="geometry" />
        </mxCell>
        <mxCell id="Mwg2DbVXl2u32MawQ9Do-31" value="" style="endArrow=classic;html=1;rounded=0;dashed=1;dashPattern=8 8;" edge="1" parent="1">
          <mxGeometry width="50" height="50" relative="1" as="geometry">
            <mxPoint x="480" y="830" as="sourcePoint" />
            <mxPoint x="370" y="830" as="targetPoint" />
          </mxGeometry>
        </mxCell>
        <mxCell id="Mwg2DbVXl2u32MawQ9Do-32" value="&lt;font style=&quot;font-size: 14px;&quot;&gt;RXD (Serial Data)&lt;/font&gt;" style="text;html=1;strokeColor=none;fillColor=none;align=center;verticalAlign=middle;whiteSpace=wrap;rounded=0;" vertex="1" parent="1">
          <mxGeometry x="480" y="810" width="150" height="30" as="geometry" />
        </mxCell>
      </root>
    </mxGraphModel>
  </diagram>
</mxfile>
